<?xml version="1.0" encoding="UTF-8"?>
<svg width="690px" height="600px" viewBox="0 0 690 600" version="1.1" xmlns="http://www.w3.org/2000/svg" xmlns:xlink="http://www.w3.org/1999/xlink">
    <title>bg_13</title>
    <g id="页面-1" stroke="none" stroke-width="1" fill="none" fill-rule="evenodd">
        <g id="区域-13" transform="translate(-55.000000, -516.000000)">
            <g id="编组-19" transform="translate(55.000000, 516.000000)">
                <g id="bg_13" transform="translate(529.037392, 162.072000)">
                    <path d="M39.7899285,210.415476 L3.85660056,205.106354 C2.22322167,204.86506 0.98971309,203.50339 0.906687569,201.860288 L0.90207153,201.670895 L0.90292847,199.038476 L1.15886821,198.845307 C3.08053584,197.330154 4.27151515,195.041452 4.3616806,192.539891 L4.3671495,192.240471 L4.36792847,181.770476 L4.45258241,181.757893 C8.83118319,181.020287 12.1491038,177.272485 12.2827314,172.762885 L12.2868737,172.486653 L12.2869285,99.2192555 L12.2832167,98.9529845 C12.159856,94.5328175 8.97485243,90.8294554 4.71209663,89.9880467 L4.36792847,89.9264761 L4.36723042,79.3714757 L4.36190802,79.0703004 C4.27339407,76.5686139 3.08567996,74.2771291 1.15998051,72.7584932 L0.90292847,72.5634761 L0.90207153,70.4144526 L0.907362422,70.2249441 C0.995957313,68.5926104 2.22225368,67.2330355 3.85658175,66.9916006 L39.5179285,61.7234761 L39.5066205,61.7426963 C38.6682692,63.2546233 38.0357561,65.3263758 37.5990028,67.9612156 L37.5284894,68.4026101 L37.5229285,85.9464761 L37.3439921,86.0006349 C33.1533266,87.3314879 30.2265624,91.1794347 30.1014043,95.6152802 L30.0972801,95.9043318 L30.0972304,176.394583 L30.1012135,176.683786 C30.2231228,181.106107 33.1325322,184.956639 37.3194016,186.297498 L37.5239285,186.359476 L37.5222304,204.111457 C37.9825893,206.677038 38.6724429,208.673904 39.6050152,210.13747 L39.7899285,210.415476 Z" fill="#DFEDFF" fill-rule="nonzero"></path>
                    <g id="13" transform="translate(13.062928, 0.000000)">
                        <polygon id="路径-30" fill="#95C1FF" fill-rule="nonzero" points="12.369 30.928 12.369 80.928 11.369 80.928 11.369 30.928"></polygon>
                        <path d="M11.869,77.928 C13.5258542,77.928 14.869,79.2711458 14.869,80.928 C14.869,82.5848542 13.5258542,83.928 11.869,83.928 C10.2121458,83.928 8.869,82.5848542 8.869,80.928 C8.869,79.2711458 10.2121458,77.928 11.869,77.928 Z M17.264,3.97903932e-13 C19.032,3.97903932e-13 20.488,0.442 21.58,1.352 C22.646,2.262 23.192,3.484 23.192,5.044 C23.192,7.124 22.178,8.528 20.15,9.204 C21.242,9.542 22.074,10.062 22.646,10.79 C23.27,11.518 23.582,12.428 23.582,13.52 C23.582,15.21 22.984,16.588 21.814,17.654 C20.618,18.746 19.058,19.292 17.134,19.292 C15.366,19.292 13.936,18.824 12.818,17.94 C11.492,16.848 10.764,15.262 10.608,13.182 L10.608,13.182 L12.766,13.182 C12.818,14.638 13.312,15.756 14.222,16.51 C15.002,17.134 15.964,17.472 17.134,17.472 C18.46,17.472 19.526,17.082 20.332,16.328 C21.06,15.6 21.45,14.69 21.45,13.598 C21.45,12.48 21.086,11.622 20.358,10.998 C19.63,10.374 18.642,10.088 17.342,10.088 L17.342,10.088 L15.834,10.088 L15.834,8.424 L17.264,8.424 C18.512,8.424 19.448,8.138 20.098,7.592 C20.748,7.02 21.086,6.214 21.086,5.174 C21.086,4.134 20.748,3.328 20.124,2.756 C19.448,2.132 18.486,1.846 17.29,1.846 C16.042,1.846 15.08,2.158 14.378,2.834 C13.65,3.51 13.234,4.472 13.104,5.72 L13.104,5.72 L10.998,5.72 C11.154,3.926 11.83,2.522 12.974,1.508 C14.066,0.494 15.496,3.97903932e-13 17.264,3.97903932e-13 Z M6.5,0.364 L6.5,18.928 L4.368,18.928 L4.368,2.964 C3.198,4.16 1.742,4.992 1.27329258e-11,5.512 L1.27329258e-11,5.512 L1.27329258e-11,3.38 C0.832,3.146 1.716,2.782 2.6,2.262 C3.484,1.69 4.212,1.066 4.836,0.364 L4.836,0.364 L6.5,0.364 Z" id="形状结合" fill="#1677FE"></path>
                    </g>
                </g>
            </g>
        </g>
    </g>
</svg>
